<svg xmlns="http://www.w3.org/2000/svg" width="208" height="208" viewBox="0 0 208 208" fill="none"><circle cx="103.557" cy="103.558" r="95.5" transform="rotate(-85.2908 103.557 103.558)" fill="white" stroke="black"></circle><path d="M32.9117 97.2424C32.8697 97.8563 32.7018 98.4052 32.4081 98.8889C32.115 99.364 31.7119 99.7317 31.199 99.9919C30.6866 100.244 30.0846 100.346 29.3928 100.298L29.2242 100.287C28.5325 100.239 27.9543 100.057 27.4896 99.7381C27.0169 99.4104 26.6677 98.9913 26.442 98.4807C26.2083 97.9609 26.1125 97.394 26.1545 96.7801C26.1965 96.1662 26.3447 95.6508 26.5991 95.2338C26.8534 94.8169 27.1754 94.4914 27.565 94.2575C27.9551 94.0149 28.3776 93.8701 28.8326 93.823L29.0162 95.1386C28.7279 95.1623 28.4623 95.2354 28.2194 95.3577C27.9765 95.4801 27.7772 95.6619 27.6217 95.9032C27.4662 96.1445 27.3755 96.4554 27.3494 96.8358C27.324 97.2076 27.3874 97.5507 27.5396 97.8652C27.6838 98.1704 27.9099 98.4204 28.218 98.6152C28.5174 98.8095 28.892 98.922 29.3416 98.9527L29.4583 98.9607C29.9079 98.9915 30.2986 98.9313 30.6304 98.7803C30.9621 98.6293 31.2202 98.4124 31.4046 98.1296C31.5896 97.8382 31.6948 97.5067 31.7202 97.1349C31.7587 96.5728 31.6453 96.1351 31.3801 95.8216C31.1062 95.5075 30.7471 95.2961 30.3029 95.1876L30.6899 93.911C31.1238 94.0449 31.5174 94.2586 31.8709 94.5521C32.2249 94.837 32.4996 95.2032 32.6948 95.6509C32.8814 96.098 32.9537 96.6285 32.9117 97.2424Z" fill="black"></path><path d="M33.3536 92.2997L24.3744 90.8216L24.5919 89.5004L33.5711 90.9785L33.3536 92.2997Z" fill="black"></path><path d="M34.4205 86.968L28.1963 85.44L28.5155 84.1396L34.7397 85.6676L34.4205 86.968ZM27.5116 84.5758C27.4496 84.8283 27.317 85.0233 27.1136 85.1608C26.904 85.2878 26.6687 85.3193 26.4078 85.2553C26.1469 85.1912 25.9571 85.0554 25.8385 84.8478C25.7136 84.6297 25.6821 84.3944 25.7441 84.1419C25.8081 83.881 25.945 83.687 26.1546 83.56C26.3559 83.4309 26.587 83.3984 26.8479 83.4625C27.1088 83.5265 27.3028 83.6634 27.4298 83.8731C27.5484 84.0806 27.5756 84.3149 27.5116 84.5758Z" fill="black"></path><path d="M37.0048 79.0642C36.8021 79.6452 36.4953 80.1302 36.0843 80.5193C35.6761 80.9001 35.1903 81.1483 34.6268 81.2638C34.0662 81.3712 33.4585 81.3107 32.8039 81.0824L32.6443 81.0268C31.9896 80.7985 31.4803 80.4694 31.1162 80.0395C30.7468 79.5986 30.5206 79.1021 30.4378 78.5501C30.3497 77.987 30.4069 77.4149 30.6095 76.8339C30.8122 76.2529 31.0912 75.7949 31.4467 75.4599C31.8021 75.125 32.1986 74.8961 32.6361 74.7733C33.0765 74.6423 33.5222 74.6142 33.9735 74.689L33.8031 76.0064C33.5188 75.9531 33.2434 75.9534 32.9767 76.0073C32.7101 76.0612 32.47 76.1839 32.2563 76.3756C32.0426 76.5672 31.873 76.8431 31.7474 77.2032C31.6247 77.5551 31.5952 77.9027 31.659 78.2462C31.7174 78.5787 31.8695 78.8796 32.1152 79.1488C32.3527 79.4152 32.6843 79.6226 33.1098 79.771L33.2203 79.8096C33.6458 79.958 34.0385 80.0031 34.3983 79.9451C34.7582 79.887 35.0644 79.7459 35.3169 79.5219C35.5723 79.2897 35.7613 78.9977 35.884 78.6458C36.0695 78.1139 36.0758 77.6617 35.9028 77.2893C35.7216 76.9141 35.4311 76.6154 35.0312 76.3934L35.7416 75.2643C36.1247 75.5081 36.448 75.8181 36.7114 76.1945C36.9776 76.5628 37.1458 76.9886 37.2159 77.4719C37.2778 77.9524 37.2074 78.4832 37.0048 79.0642Z" fill="black"></path><path d="M38.6826 74.4885L30.4792 70.5498L31.0587 69.3427L35.7347 71.5878L35.8247 71.4003L34.6662 68.0464L35.4371 66.4409L36.8369 70.7038L41.2597 69.1211L40.4944 70.715L36.9497 71.9405L36.8597 72.128L39.2622 73.2815L38.6826 74.4885Z" fill="black"></path><path d="M45.2746 62.9616L37.9608 57.547L38.7575 56.4708L41.6517 58.6135L41.7754 58.4463C41.6947 58.2786 41.638 58.0857 41.6054 57.8675C41.578 57.6424 41.6034 57.3969 41.6815 57.1312C41.7577 56.8534 41.917 56.5508 42.1594 56.2235C42.4482 55.8334 42.7905 55.553 43.1864 55.3824C43.5874 55.2049 44.0126 55.1476 44.462 55.2107C44.9043 55.2686 45.3484 55.4626 45.7942 55.7926L48.8869 58.0823L48.0902 59.1584L45.0811 56.9307C44.6353 56.6007 44.2254 56.4697 43.8514 56.5379C43.4705 56.601 43.1356 56.8275 42.8468 57.2176C42.5168 57.6634 42.3975 58.1304 42.4889 58.6187C42.5855 59.0999 42.9124 59.5468 43.4697 59.9594L46.0713 61.8854L45.2746 62.9616Z" fill="black"></path><path d="M52.2886 54.7801C51.8458 55.2559 51.3608 55.58 50.8335 55.7524C50.2999 55.9188 49.7578 55.9353 49.2072 55.8018C48.6562 55.6561 48.1395 55.3589 47.6573 54.9103L47.5431 54.804C47.0545 54.3494 46.7209 53.8556 46.5422 53.3224C46.3572 52.7833 46.3287 52.2477 46.4567 51.7157C46.5842 51.1715 46.8635 50.6678 47.2944 50.2046C47.7136 49.7541 48.1811 49.4551 48.697 49.3078C49.2125 49.1481 49.7365 49.1384 50.2689 49.2787C50.8013 49.4189 51.3055 49.7104 51.7814 50.1532L52.1526 50.4985L48.7965 54.1057C49.2207 54.4768 49.6776 54.6473 50.1671 54.6174C50.6561 54.5752 51.0837 54.3575 51.4497 53.9641C51.7921 53.596 51.9664 53.2433 51.9726 52.9058C51.9848 52.5619 51.9302 52.2389 51.8089 51.9367L52.9804 51.5173C53.0754 51.7714 53.1415 52.0756 53.1789 52.43C53.2221 52.7779 53.1834 53.1503 53.0628 53.5471C52.9422 53.944 52.6841 54.3549 52.2886 54.7801ZM48.0534 53.3967L50.4709 50.7983C50.0919 50.4931 49.6979 50.3632 49.2886 50.4086C48.8731 50.4481 48.4941 50.6519 48.1517 51.0199C47.8093 51.388 47.6304 51.7838 47.615 52.2075C47.5992 52.6189 47.7453 53.0153 48.0534 53.3967Z" fill="black"></path><path d="M55.7328 51.2154L51.5164 46.3886L52.5053 45.5248L53.0013 46.0926L53.158 45.9558C53.0596 45.685 53.0553 45.4298 53.1452 45.1902C53.2359 44.9384 53.4085 44.7013 53.6631 44.4789L54.2407 43.9743L55.0361 44.8848L54.4193 45.4236C54.0929 45.7087 53.9051 46.0339 53.8559 46.3991C53.801 46.7578 53.936 47.1231 54.261 47.4952L56.7412 50.3345L55.7328 51.2154Z" fill="black"></path><path d="M63.3442 45.4864C62.8131 45.8612 62.2718 46.0788 61.7204 46.1391C61.164 46.1923 60.63 46.0971 60.1186 45.8534C59.6093 45.5976 59.1647 45.2007 58.7849 44.6625L58.695 44.535C58.3102 43.9898 58.0851 43.4379 58.0198 42.8794C57.9495 42.3138 58.0316 41.7838 58.2661 41.2895C58.5028 40.783 58.8795 40.3474 59.3964 39.9826C59.8992 39.6278 60.4182 39.4313 60.9534 39.3931C61.4906 39.3427 62.0054 39.4409 62.4977 39.6875C62.99 39.9341 63.4235 40.323 63.7983 40.854L64.0906 41.2683L60.0651 44.1091C60.404 44.5594 60.8161 44.8202 61.3013 44.8914C61.7886 44.9506 62.2518 44.8253 62.6908 44.5155C63.1015 44.2257 63.3446 43.9162 63.42 43.5872C63.5025 43.2532 63.5154 42.9258 63.4588 42.6051L64.6915 42.4354C64.7322 42.7036 64.7345 43.0149 64.6982 43.3693C64.669 43.7188 64.5547 44.0753 64.3551 44.4389C64.1556 44.8024 63.8186 45.1516 63.3442 45.4864ZM59.4835 43.2625L62.3832 41.2162C62.075 40.8397 61.716 40.6316 61.3062 40.592C60.8914 40.5453 60.4786 40.6669 60.0679 40.9567C59.6572 41.2465 59.4008 41.5972 59.2988 42.0087C59.1987 42.4081 59.2603 42.826 59.4835 43.2625Z" fill="black"></path><path d="M74.4381 39.1549C74.0842 39.3187 73.7519 39.3436 73.4413 39.2295C73.1385 39.1118 72.9052 38.876 72.7414 38.5221L71.0649 34.9003L69.4604 35.643L68.9854 34.6166L70.5898 33.8739L69.6997 31.9509L70.9148 31.3885L71.8049 33.3114L73.5392 32.5087L74.0143 33.5351L72.28 34.3378L73.8582 37.7473C73.9674 37.9832 74.1321 38.0502 74.3524 37.9483L75.5675 37.3858L76.0426 38.4122L74.4381 39.1549Z" fill="black"></path><path d="M81.2305 36.7819C80.6238 36.9898 80.0406 37.0522 79.4808 36.9691C78.9264 36.8751 78.4338 36.6407 78.0031 36.2661C77.5725 35.8915 77.2476 35.3844 77.0285 34.7449L76.9653 34.5604C76.7462 33.9209 76.6933 33.3252 76.8066 32.7734C76.917 32.2134 77.1624 31.7262 77.5426 31.3119C77.9311 30.8949 78.4287 30.5824 79.0354 30.3745C79.6421 30.1667 80.2268 30.1084 80.7894 30.1996C81.352 30.2909 81.8486 30.5238 82.2793 30.8984C82.7071 31.2649 83.0306 31.7679 83.2497 32.4074L83.3129 32.5918C83.532 33.2314 83.5863 33.8311 83.4759 34.3911C83.3654 34.9512 83.116 35.4397 82.7275 35.8568C82.3362 36.2657 81.8373 36.5741 81.2305 36.7819ZM80.8429 35.6505C81.4004 35.4595 81.791 35.1287 82.0145 34.6582C82.2435 34.1767 82.2498 33.6202 82.0336 32.9889L81.9956 32.8782C81.7793 32.2469 81.4386 31.814 80.9735 31.5794C80.5056 31.3366 79.9887 31.3122 79.423 31.506C78.8737 31.6942 78.4845 32.029 78.2556 32.5106C78.032 32.9811 78.0284 33.532 78.2447 34.1633L78.2826 34.274C78.4989 34.9053 78.841 35.3424 79.3089 35.5851C79.7823 35.8169 80.2936 35.8387 80.8429 35.6505Z" fill="black"></path><path d="M92.6366 33.9849L89.6029 27.941L91.006 27.7427L93.4509 32.872L93.6568 32.8429L94.5844 27.2369L95.9875 27.0386L94.7476 33.6865L92.6366 33.9849Z" fill="black"></path><path d="M99.0695 33.3638L98.7774 26.9615L100.115 26.9005L100.407 33.3028L99.0695 33.3638ZM99.413 26.0606C99.1533 26.0724 98.9288 26.0003 98.7395 25.8441C98.5584 25.6788 98.4618 25.462 98.4495 25.1936C98.4373 24.9252 98.514 24.7048 98.6796 24.5324C98.8535 24.351 99.0704 24.2543 99.3301 24.2425C99.5985 24.2302 99.8232 24.3068 100.004 24.472C100.185 24.6286 100.281 24.8411 100.294 25.1095C100.306 25.3779 100.229 25.6026 100.064 25.7836C99.8984 25.956 99.6814 26.0484 99.413 26.0606Z" fill="black"></path><path d="M107.342 33.6088C106.693 33.5768 106.133 33.4147 105.661 33.1224C105.19 32.8216 104.828 32.4176 104.575 31.9105C104.332 31.3953 104.226 30.8087 104.259 30.1508L104.266 29.995C104.299 29.3285 104.462 28.7551 104.755 28.2749C105.048 27.7861 105.439 27.4193 105.928 27.1744C106.427 26.9213 106.992 26.8103 107.624 26.8414C108.238 26.8717 108.768 27.0367 109.213 27.3363C109.667 27.6277 110.012 28.0221 110.248 28.5197C110.484 29.0172 110.586 29.5906 110.554 30.2398L110.529 30.7462L105.608 30.5037C105.598 31.0672 105.761 31.5265 106.1 31.8815C106.447 32.2284 106.889 32.415 107.426 32.4415C107.928 32.4662 108.31 32.3723 108.572 32.1596C108.843 31.9473 109.055 31.6974 109.208 31.41L110.283 32.0357C110.15 32.2721 109.96 32.5187 109.713 32.7755C109.475 33.0327 109.165 33.2431 108.784 33.4065C108.403 33.5699 107.922 33.6374 107.342 33.6088ZM105.671 29.4785L109.216 29.6532C109.205 29.1668 109.051 28.7817 108.752 28.498C108.455 28.2057 108.054 28.0471 107.552 28.0224C107.05 27.9976 106.632 28.1159 106.298 28.3771C105.974 28.6301 105.765 28.9972 105.671 29.4785Z" fill="black"></path><path d="M112.873 34.0117L112.909 27.5104L114.227 27.7425L114.066 33.3108L114.27 33.3469L116.327 28.1121L118.465 28.4885L118.598 34.1086L118.803 34.1447L120.552 28.8559L121.871 29.088L119.684 35.2107L117.469 34.8208L117.334 29.2135L117.13 29.1774L115.088 34.4016L112.873 34.0117Z" fill="black"></path><path d="M126.803 37.5323L129.264 31.6146L130.476 32.1187L130.187 32.8149L130.379 32.8948C130.578 32.7333 130.834 32.6241 131.149 32.5672C131.463 32.5103 131.833 32.5701 132.257 32.7464C132.697 32.9294 133.011 33.1679 133.198 33.4618C133.397 33.7509 133.506 34.0639 133.526 34.4005L133.718 34.4804C133.967 34.2649 134.258 34.1183 134.591 34.0408C134.931 33.9665 135.342 34.0292 135.822 34.2289C136.206 34.3886 136.513 34.61 136.742 34.8932C136.975 35.1684 137.115 35.4986 137.161 35.8839C137.211 36.2612 137.141 36.6779 136.951 37.1341L135.314 41.0712L134.077 40.5571L135.675 36.716C135.824 36.3559 135.839 36.0382 135.719 35.7629C135.61 35.483 135.376 35.2682 135.016 35.1184C134.631 34.9587 134.272 34.9546 133.937 35.1062C133.601 35.2578 133.337 35.5657 133.144 36.0298L131.677 39.5588L130.44 39.0447L132.038 35.2036C132.187 34.8435 132.202 34.5258 132.082 34.2506C131.973 33.9706 131.739 33.7558 131.378 33.6061C130.994 33.4463 130.635 33.4423 130.299 33.5938C129.964 33.7454 129.7 34.0533 129.507 34.5174L128.04 38.0465L126.803 37.5323Z" fill="black"></path><path d="M135.56 44.4779L136.144 43.4645L139.241 45.2514C139.451 45.3727 139.621 45.3207 139.751 45.0955L140.739 43.384L140.559 43.2801C140.404 43.3912 140.215 43.4769 139.99 43.5373C139.777 43.5944 139.528 43.6009 139.243 43.5567C138.959 43.5125 138.64 43.3886 138.287 43.185C137.867 42.9424 137.545 42.632 137.323 42.2537C137.101 41.8755 136.996 41.4595 137.008 41.006C137.019 40.5524 137.162 40.0891 137.435 39.6162L139.364 36.2721L140.524 36.9413L138.646 40.1954C138.369 40.6758 138.283 41.1017 138.389 41.473C138.5 41.8368 138.769 42.1421 139.197 42.389C139.669 42.6619 140.14 42.7231 140.607 42.5724C141.081 42.4261 141.492 42.0526 141.839 41.4521L143.463 38.6372L144.623 39.3064L140.763 45.9947C140.568 46.3325 140.311 46.5443 139.991 46.63C139.679 46.72 139.35 46.6654 139.005 46.4662L135.56 44.4779Z" fill="black"></path><path d="M147.24 49.3391L151.39 44.4555L152.391 45.3058L151.902 45.8804L152.061 46.0151C152.314 45.8777 152.566 45.8357 152.816 45.8892C153.078 45.9417 153.339 46.0774 153.596 46.2963L154.181 46.793L153.398 47.7142L152.774 47.1838C152.443 46.9032 152.094 46.7656 151.726 46.7709C151.363 46.7696 151.021 46.9571 150.701 47.3336L148.26 50.2063L147.24 49.3391Z" fill="black"></path><path d="M154.031 56.0198C153.582 55.55 153.287 55.0469 153.145 54.5104C153.01 53.968 153.026 53.4258 153.191 52.884C153.369 52.3424 153.696 51.844 154.172 51.3889L154.285 51.2811C154.767 50.8199 155.279 50.5158 155.822 50.3686C156.371 50.2154 156.907 50.2183 157.431 50.3771C157.967 50.5363 158.453 50.8445 158.891 51.3018C159.316 51.7466 159.587 52.2308 159.704 52.7545C159.833 53.2784 159.812 53.802 159.641 54.3254C159.47 54.8487 159.149 55.3349 158.68 55.7841L158.313 56.1345L154.908 52.5732C154.513 52.975 154.316 53.4211 154.317 53.9115C154.331 54.4022 154.523 54.8417 154.895 55.2301C155.242 55.5935 155.584 55.7881 155.92 55.8141C156.263 55.8463 156.589 55.8107 156.897 55.7073L157.248 56.9013C156.988 56.9813 156.681 57.0295 156.325 57.046C155.975 57.0688 155.606 57.0084 155.216 56.8648C154.827 56.7212 154.432 56.4396 154.031 56.0198ZM155.66 51.8729L158.112 54.4381C158.439 54.0777 158.592 53.6919 158.57 53.2807C158.555 52.8635 158.374 52.4733 158.027 52.1099C157.679 51.7466 157.294 51.5449 156.872 51.5047C156.463 51.4649 156.058 51.5876 155.66 51.8729Z" fill="black"></path><path d="M158.834 61.8388C158.337 61.1929 158.07 60.5459 158.031 59.8981C157.992 59.2502 158.228 58.6538 158.738 58.1087L159.736 58.9161C159.496 59.1876 159.344 59.452 159.279 59.7093C159.215 59.9666 159.222 60.2179 159.301 60.4631C159.386 60.7152 159.515 60.9546 159.689 61.1814C159.948 61.5181 160.211 61.7257 160.479 61.804C160.752 61.8893 160.992 61.8527 161.198 61.6942C161.404 61.5358 161.489 61.3337 161.454 61.088C161.418 60.8423 161.302 60.5273 161.105 60.143L160.897 59.745C160.695 59.3539 160.544 58.9726 160.444 58.601C160.345 58.2295 160.335 57.8821 160.414 57.5587C160.493 57.2354 160.695 56.9496 161.018 56.7014C161.499 56.3318 162.007 56.2253 162.543 56.382C163.085 56.5334 163.584 56.9046 164.038 57.4956C164.476 58.066 164.705 58.6336 164.723 59.1985C164.754 59.765 164.592 60.2722 164.237 60.7201L163.198 59.9444C163.46 59.6449 163.576 59.348 163.546 59.0536C163.524 58.754 163.399 58.4565 163.172 58.161C162.95 57.8723 162.721 57.6878 162.484 57.6073C162.254 57.5216 162.043 57.5527 161.851 57.7005C161.645 57.859 161.554 58.0542 161.58 58.2862C161.61 58.525 161.707 58.8004 161.87 59.1122L162.085 59.5205C162.303 59.9323 162.474 60.3316 162.596 60.7185C162.718 61.1053 162.743 61.4639 162.668 61.7941C162.6 62.1312 162.393 62.4317 162.05 62.6958C161.541 63.0865 161.001 63.2012 160.429 63.0397C159.856 62.8782 159.325 62.478 158.834 61.8388Z" fill="black"></path><path d="M162.773 67.675C162.521 67.2606 162.388 66.8342 162.374 66.3958C162.361 65.9574 162.468 65.542 162.695 65.1495C162.923 64.757 163.274 64.4164 163.747 64.1277L167.033 62.1249L167.73 63.2682L164.522 65.2236C164.048 65.5123 163.769 65.845 163.684 66.2217C163.606 66.5938 163.696 66.9908 163.953 67.4126C164.237 67.8788 164.621 68.1578 165.103 68.2495C165.597 68.3442 166.14 68.2111 166.732 67.8502L169.496 66.1654L170.193 67.3087L164.72 70.6445L164.037 69.5234L164.858 69.0227L164.75 68.845C164.465 68.8768 164.141 68.8203 163.779 68.6757C163.424 68.5266 163.089 68.193 162.773 67.675Z" fill="black"></path><path d="M165.456 72.2555L171.313 69.6532L171.846 70.8531L171.157 71.1593L171.242 71.3494C171.497 71.3688 171.758 71.466 172.026 71.6412C172.293 71.8163 172.52 72.1138 172.707 72.5335C172.9 72.9691 172.964 73.3581 172.898 73.7004C172.843 74.0471 172.708 74.3494 172.49 74.6072L172.575 74.7972C172.904 74.8122 173.216 74.906 173.51 75.0785C173.809 75.2589 174.063 75.5868 174.275 76.062C174.443 76.4421 174.514 76.8139 174.486 77.1773C174.465 77.5372 174.339 77.8729 174.108 78.1844C173.884 78.4924 173.547 78.7466 173.095 78.9472L169.199 80.6785L168.655 79.4549L172.457 77.7658C172.813 77.6074 173.042 77.387 173.145 77.1046C173.258 76.8265 173.236 76.5093 173.077 76.1529C172.908 75.7727 172.65 75.5223 172.303 75.4017C171.955 75.2811 171.552 75.3229 171.092 75.527L167.599 77.0788L167.056 75.8552L170.857 74.1661C171.214 74.0077 171.443 73.7873 171.545 73.5049C171.659 73.2268 171.636 72.9096 171.478 72.5532C171.309 72.173 171.051 71.9226 170.703 71.802C170.356 71.6815 169.952 71.7232 169.493 71.9273L166 73.4791L165.456 72.2555Z" fill="black"></path><path d="M169.977 84.7378C169.792 84.1147 169.759 83.5323 169.878 82.9906C170.006 82.4463 170.267 81.971 170.662 81.5644C171.067 81.1637 171.585 80.8696 172.217 80.682L172.366 80.6376C173.006 80.4475 173.601 80.4109 174.151 80.5278C174.709 80.6422 175.185 80.8896 175.578 81.27C175.982 81.6562 176.275 82.1526 176.455 82.759C176.63 83.3489 176.65 83.9035 176.515 84.4228C176.391 84.9479 176.133 85.4042 175.742 85.7916C175.351 86.1791 174.844 86.4654 174.221 86.6505L173.735 86.7949L172.331 82.0719C171.796 82.249 171.417 82.5559 171.195 82.9928C170.982 83.4355 170.953 83.9144 171.106 84.4295C171.249 84.9114 171.465 85.2407 171.752 85.4174C172.042 85.6025 172.348 85.7195 172.67 85.7685L172.437 86.9907C172.169 86.9435 171.874 86.846 171.549 86.6982C171.228 86.5587 170.927 86.3362 170.646 86.0308C170.365 85.7254 170.142 85.2944 169.977 84.7378ZM173.319 81.7919L174.33 85.1939C174.786 85.0225 175.098 84.749 175.266 84.3734C175.443 83.9953 175.46 83.5653 175.317 83.0835C175.174 82.6016 174.924 82.2465 174.567 82.0181C174.22 81.7955 173.804 81.7201 173.319 81.7919Z" fill="black"></path><path d="M175.079 95.7505C175.044 95.4492 175.113 95.1837 175.287 94.954C175.462 94.7328 175.704 94.6042 176.014 94.5679C176.324 94.5317 176.585 94.6015 176.798 94.7774C177.02 94.9608 177.149 95.2032 177.184 95.5045C177.219 95.8057 177.149 96.0669 176.974 96.2881C176.801 96.5178 176.563 96.6503 176.262 96.6855C175.952 96.7217 175.686 96.6481 175.464 96.4647C175.243 96.2898 175.114 96.0518 175.079 95.7505Z" fill="black"></path><path d="M172.308 108.658C172.343 108.044 172.504 107.493 172.792 107.005C173.079 106.527 173.477 106.154 173.987 105.888C174.496 105.63 175.097 105.52 175.789 105.559L175.958 105.569C176.65 105.607 177.231 105.783 177.699 106.096C178.176 106.418 178.53 106.833 178.762 107.34C179.002 107.857 179.105 108.423 179.071 109.037C179.036 109.652 178.894 110.169 178.645 110.589C178.396 111.009 178.078 111.338 177.691 111.577C177.304 111.824 176.884 111.974 176.429 112.027L176.229 110.714C176.517 110.687 176.782 110.61 177.023 110.485C177.265 110.36 177.462 110.175 177.614 109.932C177.767 109.689 177.854 109.377 177.875 108.996C177.896 108.624 177.828 108.282 177.672 107.969C177.524 107.666 177.295 107.419 176.985 107.228C176.683 107.037 176.307 106.929 175.857 106.904L175.74 106.897C175.29 106.872 174.901 106.937 174.571 107.092C174.241 107.247 173.985 107.467 173.804 107.752C173.623 108.046 173.522 108.379 173.501 108.751C173.47 109.313 173.588 109.75 173.857 110.06C174.135 110.371 174.497 110.578 174.942 110.681L174.571 111.962C174.135 111.833 173.739 111.624 173.382 111.335C173.025 111.055 172.746 110.692 172.545 110.247C172.353 109.802 172.274 109.272 172.308 108.658Z" fill="black"></path><path d="M171.927 113.606L180.924 114.974L180.723 116.297L171.726 114.93L171.927 113.606Z" fill="black"></path><path d="M170.926 118.95L177.168 120.402L176.865 121.706L170.623 120.255L170.926 118.95ZM177.864 121.258C177.923 121.004 178.053 120.808 178.254 120.668C178.462 120.538 178.697 120.504 178.959 120.565C179.221 120.625 179.412 120.759 179.533 120.965C179.661 121.182 179.695 121.416 179.636 121.67C179.576 121.931 179.441 122.127 179.233 122.257C179.033 122.388 178.803 122.423 178.541 122.363C178.279 122.302 178.084 122.167 177.954 121.959C177.833 121.753 177.803 121.519 177.864 121.258Z" fill="black"></path><path d="M168.439 126.886C168.634 126.302 168.935 125.813 169.341 125.419C169.745 125.033 170.228 124.779 170.79 124.657C171.349 124.543 171.957 124.596 172.615 124.816L172.775 124.87C173.432 125.09 173.946 125.413 174.315 125.838C174.69 126.274 174.922 126.768 175.012 127.319C175.107 127.881 175.056 128.454 174.861 129.037C174.666 129.621 174.392 130.082 174.041 130.421C173.689 130.761 173.296 130.994 172.86 131.122C172.421 131.259 171.976 131.292 171.524 131.223L171.678 129.904C171.963 129.954 172.238 129.95 172.504 129.893C172.77 129.836 173.009 129.71 173.22 129.516C173.431 129.321 173.598 129.043 173.719 128.682C173.837 128.328 173.862 127.98 173.794 127.638C173.732 127.306 173.576 127.007 173.327 126.741C173.086 126.477 172.752 126.274 172.325 126.131L172.214 126.094C171.787 125.951 171.393 125.91 171.034 125.973C170.675 126.035 170.371 126.18 170.121 126.407C169.868 126.642 169.683 126.937 169.565 127.29C169.386 127.824 169.385 128.276 169.563 128.647C169.748 129.02 170.043 129.315 170.445 129.532L169.749 130.67C169.362 130.431 169.035 130.124 168.767 129.751C168.497 129.386 168.323 128.963 168.247 128.48C168.179 128.001 168.243 127.469 168.439 126.886Z" fill="black"></path><path d="M166.817 131.481L175.068 135.319L174.504 136.533L169.801 134.346L169.713 134.534L170.912 137.874L170.161 139.488L168.709 135.243L164.306 136.88L165.052 135.277L168.581 134.008L168.669 133.819L166.253 132.695L166.817 131.481Z" fill="black"></path><path d="M160.367 143.089L167.747 148.413L166.964 149.499L164.043 147.392L163.922 147.561C164.005 147.727 164.064 147.919 164.099 148.137C164.129 148.362 164.107 148.608 164.032 148.874C163.959 149.153 163.803 149.458 163.565 149.788C163.281 150.181 162.942 150.466 162.548 150.641C162.15 150.824 161.725 150.886 161.275 150.829C160.832 150.776 160.386 150.588 159.936 150.263L156.815 148.012L157.599 146.926L160.635 149.117C161.085 149.441 161.496 149.567 161.869 149.494C162.249 149.427 162.582 149.196 162.866 148.802C163.19 148.352 163.304 147.884 163.206 147.397C163.104 146.917 162.771 146.474 162.209 146.068L159.584 144.174L160.367 143.089Z" fill="black"></path><path d="M153.454 151.356C153.891 150.874 154.372 150.544 154.897 150.366C155.429 150.193 155.971 150.169 156.523 150.296C157.076 150.435 157.596 150.726 158.084 151.169L158.199 151.273C158.693 151.722 159.033 152.212 159.218 152.743C159.41 153.279 159.445 153.815 159.324 154.348C159.203 154.894 158.93 155.401 158.504 155.869C158.091 156.325 157.627 156.63 157.113 156.783C156.599 156.949 156.076 156.966 155.542 156.832C155.007 156.698 154.5 156.413 154.018 155.976L153.643 155.635L156.955 151.987C156.526 151.621 156.067 151.456 155.578 151.492C155.089 151.54 154.664 151.763 154.303 152.161C153.965 152.534 153.795 152.888 153.793 153.226C153.785 153.57 153.844 153.892 153.969 154.193L152.803 154.627C152.705 154.374 152.635 154.07 152.593 153.717C152.546 153.369 152.58 152.996 152.695 152.598C152.811 152.2 153.064 151.786 153.454 151.356ZM157.706 152.687L155.321 155.315C155.704 155.615 156.099 155.74 156.508 155.69C156.923 155.645 157.299 155.437 157.637 155.065C157.975 154.693 158.149 154.294 158.159 153.871C158.17 153.459 158.019 153.064 157.706 152.687Z" fill="black"></path><path d="M150.054 154.962L154.33 159.737L153.351 160.613L152.848 160.051L152.694 160.19C152.795 160.459 152.803 160.714 152.716 160.955C152.628 161.208 152.458 161.447 152.207 161.673L151.635 162.184L150.829 161.283L151.439 160.737C151.762 160.448 151.945 160.121 151.99 159.755C152.041 159.396 151.901 159.032 151.572 158.664L149.057 155.855L150.054 154.962Z" fill="black"></path><path d="M142.514 160.784C143.04 160.403 143.579 160.179 144.129 160.112C144.685 160.052 145.22 160.14 145.735 160.378C146.247 160.627 146.696 161.019 147.083 161.552L147.174 161.678C147.566 162.219 147.798 162.768 147.87 163.326C147.947 163.89 147.871 164.421 147.643 164.918C147.413 165.428 147.041 165.868 146.529 166.239C146.03 166.6 145.514 166.803 144.979 166.848C144.443 166.905 143.927 166.813 143.431 166.572C142.936 166.332 142.498 165.948 142.117 165.422L141.819 165.011L145.809 162.121C145.465 161.675 145.05 161.419 144.564 161.354C144.076 161.301 143.614 161.432 143.179 161.747C142.772 162.042 142.533 162.354 142.461 162.684C142.383 163.019 142.374 163.347 142.434 163.667L141.204 163.852C141.16 163.584 141.154 163.273 141.186 162.918C141.211 162.568 141.321 162.21 141.516 161.844C141.711 161.478 142.043 161.125 142.514 160.784ZM146.401 162.96L143.527 165.042C143.84 165.415 144.201 165.619 144.612 165.653C145.027 165.695 145.438 165.568 145.845 165.273C146.252 164.978 146.505 164.625 146.602 164.212C146.697 163.811 146.63 163.394 146.401 162.96Z" fill="black"></path><path d="M131.498 167.252C131.85 167.083 132.182 167.054 132.494 167.165C132.799 167.279 133.035 167.512 133.203 167.863L134.924 171.464L136.519 170.702L137.007 171.723L135.411 172.485L136.325 174.397L135.117 174.974L134.203 173.062L132.479 173.886L131.991 172.866L133.716 172.042L132.096 168.652C131.984 168.417 131.818 168.352 131.599 168.457L130.391 169.034L129.903 168.014L131.498 167.252Z" fill="black"></path><path d="M124.736 169.708C125.34 169.493 125.922 169.423 126.483 169.499C127.039 169.586 127.534 169.815 127.969 170.184C128.404 170.553 128.736 171.056 128.962 171.693L129.028 171.877C129.255 172.514 129.315 173.109 129.209 173.662C129.105 174.223 128.866 174.713 128.491 175.132C128.107 175.554 127.614 175.873 127.009 176.088C126.405 176.303 125.821 176.369 125.258 176.284C124.694 176.2 124.195 175.973 123.759 175.604C123.327 175.243 122.997 174.744 122.77 174.107L122.705 173.923C122.478 173.286 122.416 172.687 122.52 172.126C122.624 171.565 122.867 171.073 123.25 170.651C123.636 170.238 124.132 169.923 124.736 169.708ZM125.137 170.834C124.582 171.032 124.196 171.368 123.978 171.841C123.755 172.325 123.755 172.882 123.979 173.51L124.019 173.621C124.243 174.249 124.589 174.678 125.057 174.907C125.528 175.144 126.045 175.162 126.608 174.961C127.155 174.766 127.54 174.427 127.763 173.942C127.981 173.469 127.978 172.918 127.754 172.29L127.714 172.179C127.49 171.551 127.143 171.118 126.672 170.881C126.196 170.655 125.684 170.64 125.137 170.834Z" fill="black"></path><path d="M113.365 172.645L116.473 178.651L115.072 178.866L112.564 173.767L112.359 173.799L111.5 179.416L110.1 179.632L111.258 172.969L113.365 172.645Z" fill="black"></path><path d="M106.94 173.345L107.311 179.743L105.974 179.82L105.603 173.422L106.94 173.345ZM106.686 180.651C106.946 180.636 107.171 180.706 107.362 180.86C107.546 181.023 107.645 181.238 107.66 181.507C107.676 181.775 107.602 181.996 107.438 182.17C107.267 182.354 107.051 182.453 106.792 182.468C106.523 182.484 106.298 182.41 106.115 182.247C105.932 182.093 105.833 181.882 105.817 181.613C105.802 181.345 105.876 181.119 106.039 180.936C106.202 180.762 106.418 180.667 106.686 180.651Z" fill="black"></path><path d="M98.665 173.201C99.3146 173.225 99.8769 173.381 100.352 173.667C100.827 173.962 101.194 174.362 101.452 174.866C101.702 175.378 101.815 175.963 101.791 176.621L101.785 176.777C101.76 177.444 101.605 178.019 101.318 178.503C101.031 178.996 100.644 179.367 100.158 179.618C99.6627 179.877 99.0989 179.995 98.4667 179.972C97.8518 179.949 97.3199 179.791 96.8712 179.496C96.4134 179.211 96.0636 178.82 95.8217 178.326C95.5798 177.831 95.4709 177.259 95.4949 176.61L95.5136 176.103L100.437 176.285C100.441 175.721 100.271 175.264 99.9286 174.913C99.577 174.571 99.1328 174.39 98.5958 174.37C98.0935 174.351 97.7126 174.45 97.4531 174.666C97.1849 174.881 96.9761 175.134 96.8267 175.423L95.7435 174.811C95.8738 174.573 96.0608 174.324 96.3045 174.064C96.5396 173.804 96.8468 173.59 97.2259 173.421C97.605 173.253 98.0847 173.18 98.665 173.201ZM100.386 177.311L96.8397 177.18C96.8565 177.666 97.0157 178.049 97.3176 178.329C97.6191 178.618 98.0211 178.771 98.5234 178.79C99.0257 178.809 99.4422 178.685 99.7729 178.42C100.095 178.163 100.299 177.793 100.386 177.311Z" fill="black"></path><path d="M93.1296 172.866L93.1738 179.368L91.8524 179.152L91.9457 173.582L91.7405 173.548L89.7483 178.808L87.6057 178.458L87.404 172.84L87.1987 172.806L85.5144 178.116L84.1929 177.9L86.3041 171.751L88.5237 172.114L88.7275 177.719L88.9328 177.753L90.91 172.504L93.1296 172.866Z" fill="black"></path><path d="M79.1572 169.517L76.7693 175.465L75.5508 174.975L75.8318 174.276L75.6387 174.198C75.4422 174.362 75.187 174.474 74.8731 174.535C74.5591 174.596 74.1891 174.541 73.7628 174.37C73.3205 174.192 73.0037 173.957 72.8126 173.666C72.6102 173.379 72.4971 173.068 72.4734 172.731L72.2804 172.654C72.0339 172.872 71.7448 173.022 71.4132 173.104C71.0735 173.183 70.6624 173.125 70.1798 172.931C69.7938 172.776 69.4842 172.558 69.2512 172.278C69.015 172.006 68.8714 171.677 68.8204 171.293C68.7661 170.916 68.8311 170.498 69.0151 170.04L70.6038 166.083L71.8464 166.582L70.2965 170.442C70.1511 170.804 70.1403 171.122 70.2638 171.396C70.3761 171.674 70.6133 171.886 70.9752 172.032C71.3612 172.187 71.7209 172.186 72.0542 172.031C72.3876 171.875 72.6479 171.564 72.8352 171.097L74.2592 167.551L75.5018 168.05L73.9518 171.91C73.8065 172.272 73.7957 172.59 73.9192 172.863C74.0315 173.142 74.2686 173.354 74.6306 173.499C75.0166 173.654 75.3763 173.654 75.7096 173.498C76.043 173.343 76.3033 173.032 76.4906 172.565L77.9146 169.018L79.1572 169.517Z" fill="black"></path><path d="M70.3161 162.679L69.7438 163.7L66.6257 161.951C66.414 161.832 66.2446 161.886 66.1174 162.113L65.1509 163.837L65.3323 163.938C65.4851 163.825 65.6736 163.737 65.8978 163.674C66.1102 163.614 66.3589 163.605 66.6441 163.646C66.9293 163.686 67.2496 163.806 67.6049 164.006C68.0282 164.243 68.3531 164.549 68.5798 164.925C68.8064 165.3 68.9167 165.715 68.9107 166.169C68.9046 166.622 68.7681 167.087 68.501 167.564L66.6125 170.931L65.4446 170.276L67.2823 166.999C67.5536 166.516 67.634 166.089 67.5235 165.719C67.4088 165.356 67.136 165.054 66.7051 164.813C66.2289 164.546 65.7581 164.49 65.2929 164.647C64.82 164.799 64.414 165.177 64.0749 165.782L62.4852 168.617L61.3173 167.962L65.0944 161.226C65.2852 160.886 65.5398 160.671 65.8584 160.582C66.1694 160.488 66.4987 160.538 66.8465 160.733L70.3161 162.679Z" fill="black"></path><path d="M58.5773 157.962L54.4872 162.896L53.4764 162.058L53.9576 161.478L53.7974 161.345C53.5459 161.486 53.2947 161.531 53.0438 161.48C52.7807 161.431 52.519 161.298 52.2588 161.083L51.6683 160.593L52.4398 159.662L53.0704 160.185C53.404 160.462 53.755 160.595 54.1234 160.585C54.4862 160.582 54.8253 160.39 55.1405 160.01L57.5465 157.108L58.5773 157.962Z" fill="black"></path><path d="M51.7046 151.365C52.1595 151.829 52.4608 152.329 52.6086 152.864C52.7502 153.404 52.7416 153.947 52.5829 154.49C52.4118 155.034 52.0911 155.536 51.6206 155.997L51.5092 156.107C51.0326 156.574 50.5238 156.884 49.9829 157.038C49.4358 157.198 48.8995 157.202 48.374 157.049C47.8363 156.897 47.346 156.594 46.9032 156.142C46.4726 155.703 46.1956 155.222 46.0722 154.7C45.9365 154.178 45.9511 153.654 46.1158 153.128C46.2804 152.603 46.5949 152.113 47.0592 151.658L47.4213 151.303L50.8696 154.822C51.2598 154.416 51.4513 153.967 51.4441 153.477C51.4245 152.986 51.2268 152.549 50.8507 152.165C50.4989 151.806 50.1546 151.616 49.8177 151.594C49.4748 151.566 49.1496 151.606 48.8421 151.713L48.4773 150.523C48.7355 150.44 49.0425 150.388 49.3982 150.367C49.7478 150.34 50.118 150.396 50.5088 150.535C50.8996 150.674 51.2982 150.95 51.7046 151.365ZM50.1269 155.532L47.6431 152.997C47.3207 153.361 47.1727 153.749 47.1992 154.16C47.2195 154.577 47.4055 154.965 47.7573 155.324C48.1091 155.683 48.4963 155.88 48.9188 155.915C49.329 155.95 49.7318 155.822 50.1269 155.532Z" fill="black"></path><path d="M46.8307 145.606C47.335 146.245 47.6105 146.889 47.6572 147.536C47.7039 148.184 47.4755 148.783 46.9721 149.334L45.9647 148.539C46.2009 148.265 46.3497 147.999 46.4111 147.74C46.4726 147.482 46.4622 147.231 46.3801 146.987C46.2926 146.736 46.1603 146.498 45.9833 146.273C45.7204 145.94 45.4546 145.736 45.1858 145.661C44.9116 145.579 44.6724 145.618 44.4682 145.779C44.264 145.94 44.1813 146.143 44.2201 146.389C44.2589 146.634 44.3791 146.947 44.5807 147.329L44.7931 147.725C45 148.113 45.1556 148.493 45.2599 148.863C45.3641 149.233 45.3785 149.58 45.303 149.905C45.2276 150.229 45.0299 150.517 44.71 150.769C44.2335 151.145 43.7265 151.258 43.1888 151.108C42.6444 150.963 42.1415 150.598 41.6802 150.012C41.2349 149.447 40.9995 148.883 40.9738 148.318C40.936 147.752 41.0919 147.243 41.4417 146.791L42.4899 147.553C42.2319 147.856 42.1194 148.154 42.1525 148.448C42.1787 148.748 42.3072 149.044 42.5378 149.336C42.7632 149.622 42.9946 149.804 43.2323 149.882C43.4631 149.964 43.6739 149.931 43.8645 149.781C44.0687 149.62 44.1567 149.423 44.1286 149.192C44.0952 148.953 43.995 148.679 43.828 148.369L43.6077 147.964C43.3846 147.555 43.2095 147.157 43.0824 146.772C42.9552 146.387 42.9267 146.029 42.9968 145.697C43.0615 145.36 43.2641 145.056 43.6044 144.788C44.1081 144.391 44.647 144.27 45.2212 144.424C45.7953 144.579 46.3318 144.973 46.8307 145.606Z" fill="black"></path><path d="M42.8196 139.818C43.0773 140.229 43.2155 140.654 43.2344 141.092C43.2532 141.53 43.1513 141.947 42.9285 142.342C42.7057 142.738 42.3592 143.083 41.8892 143.377L38.6284 145.42L37.9174 144.285L41.1012 142.291C41.5712 141.996 41.8465 141.66 41.9269 141.283C42 140.909 41.9054 140.514 41.6431 140.095C41.3532 139.632 40.9666 139.358 40.4833 139.272C39.988 139.184 39.4466 139.323 38.8591 139.692L36.116 141.41L35.4051 140.275L40.8362 136.873L41.5333 137.985L40.7181 138.496L40.8285 138.672C41.1133 138.637 41.4376 138.69 41.8015 138.83C42.1581 138.975 42.4975 139.304 42.8196 139.818Z" fill="black"></path><path d="M40.0805 135.271L34.2559 137.945L33.7081 136.752L34.3934 136.438L34.3066 136.249C34.0512 136.232 33.7887 136.138 33.519 135.966C33.2494 135.795 33.0188 135.5 32.8272 135.082C32.6283 134.649 32.5598 134.261 32.6216 133.918C32.6719 133.571 32.8042 133.267 33.0184 133.006L32.9316 132.817C32.6023 132.806 32.2893 132.716 31.9924 132.548C31.6919 132.371 31.4332 132.046 31.2163 131.574C31.0427 131.196 30.9678 130.825 30.9915 130.461C31.0074 130.101 31.1291 129.764 31.3567 129.449C31.5765 129.139 31.9108 128.88 32.3598 128.674L36.2349 126.895L36.7936 128.112L33.013 129.848C32.6585 130.01 32.432 130.233 32.3334 130.517C32.2232 130.797 32.2495 131.114 32.4123 131.468C32.5858 131.846 32.8471 132.093 33.1961 132.21C33.5452 132.326 33.9481 132.279 34.4049 132.069L37.8784 130.475L38.437 131.692L34.6564 133.427C34.302 133.59 34.0754 133.813 33.9768 134.097C33.8667 134.376 33.893 134.693 34.0557 135.048C34.2293 135.426 34.4906 135.673 34.8396 135.789C35.1886 135.906 35.5915 135.859 36.0484 135.649L39.5218 134.055L40.0805 135.271Z" fill="black"></path><path d="M35.4069 122.845C35.5996 123.466 35.6397 124.048 35.527 124.591C35.4061 125.137 35.1508 125.616 34.7613 126.027C34.3609 126.433 33.8462 126.733 33.2172 126.928L33.0682 126.975C32.4309 127.173 31.8365 127.216 31.285 127.106C30.7253 126.999 30.2465 126.757 29.8485 126.382C29.4398 126.001 29.1416 125.508 28.9539 124.904C28.7715 124.316 28.7446 123.762 28.8732 123.241C28.991 122.714 29.2431 122.255 29.6295 121.862C30.0159 121.47 30.5195 121.178 31.1402 120.985L31.6244 120.835L33.0855 125.54C33.6184 125.356 33.9935 125.045 34.2109 124.605C34.4175 124.16 34.4411 123.681 34.2818 123.168C34.1327 122.687 33.9133 122.361 33.6236 122.188C33.3313 122.006 33.0239 121.893 32.7013 121.848L32.9199 120.623C33.1877 120.667 33.4845 120.761 33.8105 120.905C34.1339 121.04 34.4377 121.259 34.7221 121.561C35.0064 121.863 35.2347 122.291 35.4069 122.845ZM32.1009 125.832L31.0484 122.443C30.5952 122.62 30.2865 122.897 30.1225 123.275C29.9502 123.655 29.9385 124.085 30.0876 124.565C30.2366 125.045 30.4912 125.397 30.8511 125.621C31.2002 125.84 31.6168 125.91 32.1009 125.832Z" fill="black"></path><path d="M31.1698 111.859C31.2087 112.16 31.1426 112.426 30.9716 112.658C30.7995 112.881 30.5588 113.013 30.2494 113.053C29.9399 113.093 29.6779 113.026 29.4632 112.853C29.2388 112.673 29.1072 112.432 29.0683 112.131C29.0294 111.83 29.096 111.568 29.2681 111.345C29.4391 111.113 29.675 110.978 29.9758 110.939C30.2852 110.899 30.5521 110.969 30.7765 111.15C30.9998 111.322 31.1308 111.558 31.1698 111.859Z" fill="black"></path><circle cx="103.557" cy="103.558" r="51.5" transform="rotate(-85.2908 103.557 103.558)" stroke="black"></circle><path d="M94.0833 110.917L113.917 91.0835" stroke="#8002E4" stroke-width="1.5" stroke-linecap="round" stroke-linejoin="round"></path><path d="M102.583 91.0835H113.917V102.417" stroke="#8002E4" stroke-width="1.5" stroke-linecap="round" stroke-linejoin="round"></path></svg>